<svg width="296" height="13" viewBox="0 0 296 13" fill="none" xmlns="http://www.w3.org/2000/svg">
<path d="M7.79785 6.7373L9.0293 7.04834C8.77116 8.05973 8.30566 8.83203 7.63281 9.36523C6.96419 9.89421 6.14535 10.1587 5.17627 10.1587C4.17334 10.1587 3.35661 9.95557 2.72607 9.54932C2.09977 9.13883 1.62158 8.54639 1.2915 7.77197C0.965658 6.99756 0.802734 6.16602 0.802734 5.27734C0.802734 4.30827 0.986816 3.46403 1.35498 2.74463C1.72738 2.021 2.25423 1.47298 2.93555 1.10059C3.62109 0.723958 4.37435 0.535645 5.19531 0.535645C6.1263 0.535645 6.90918 0.772624 7.54395 1.24658C8.17871 1.72054 8.62093 2.38704 8.87061 3.24609L7.6582 3.53174C7.44238 2.85465 7.12923 2.36165 6.71875 2.05273C6.30827 1.74382 5.79199 1.58936 5.16992 1.58936C4.45475 1.58936 3.85596 1.76074 3.37354 2.10352C2.89535 2.44629 2.55892 2.90755 2.36426 3.4873C2.1696 4.06283 2.07227 4.65739 2.07227 5.271C2.07227 6.06234 2.18652 6.75423 2.41504 7.34668C2.64779 7.9349 3.00749 8.375 3.49414 8.66699C3.98079 8.95898 4.50765 9.10498 5.07471 9.10498C5.76449 9.10498 6.34847 8.90609 6.82666 8.5083C7.30485 8.11051 7.62858 7.52018 7.79785 6.7373ZM9.98145 6.62939C9.98145 5.38102 10.3285 4.45638 11.0225 3.85547C11.6022 3.35612 12.3089 3.10645 13.1426 3.10645C14.0693 3.10645 14.8268 3.41113 15.415 4.02051C16.0033 4.62565 16.2974 5.46354 16.2974 6.53418C16.2974 7.40169 16.1662 8.08512 15.9038 8.58447C15.6457 9.07959 15.2669 9.46468 14.7676 9.73975C14.2725 10.0148 13.7308 10.1523 13.1426 10.1523C12.1989 10.1523 11.4351 9.84977 10.8511 9.24463C10.2713 8.63949 9.98145 7.76774 9.98145 6.62939ZM11.1558 6.62939C11.1558 7.49268 11.3441 8.14014 11.7207 8.57178C12.0973 8.99919 12.5713 9.21289 13.1426 9.21289C13.7096 9.21289 14.1815 8.99707 14.5581 8.56543C14.9347 8.13379 15.123 7.47575 15.123 6.59131C15.123 5.75765 14.9326 5.12712 14.5518 4.69971C14.1751 4.26807 13.7054 4.05225 13.1426 4.05225C12.5713 4.05225 12.0973 4.26595 11.7207 4.69336C11.3441 5.12077 11.1558 5.76611 11.1558 6.62939ZM17.6431 12.5835V3.25879H18.6841V4.13477C18.9295 3.79199 19.2067 3.53597 19.5156 3.3667C19.8245 3.1932 20.1991 3.10645 20.6392 3.10645C21.2147 3.10645 21.7225 3.25456 22.1626 3.55078C22.6027 3.84701 22.9349 4.26595 23.1592 4.80762C23.3835 5.34505 23.4956 5.93538 23.4956 6.57861C23.4956 7.26839 23.3708 7.89046 23.1211 8.44482C22.8757 8.99495 22.516 9.41813 22.042 9.71436C21.5723 10.0063 21.0771 10.1523 20.5566 10.1523C20.1758 10.1523 19.833 10.0719 19.5283 9.91113C19.2279 9.75033 18.9803 9.5472 18.7856 9.30176V12.5835H17.6431ZM18.6777 6.66748C18.6777 7.53499 18.8534 8.17611 19.2046 8.59082C19.5558 9.00553 19.9811 9.21289 20.4805 9.21289C20.9883 9.21289 21.422 8.99919 21.7817 8.57178C22.1457 8.14014 22.3276 7.47363 22.3276 6.57227C22.3276 5.71322 22.1499 5.06999 21.7944 4.64258C21.4432 4.21517 21.0221 4.00146 20.5312 4.00146C20.0446 4.00146 19.613 4.22998 19.2363 4.68701C18.8639 5.13981 18.6777 5.79997 18.6777 6.66748ZM24.8286 12.5962L24.7017 11.5234C24.9513 11.5911 25.1693 11.625 25.3555 11.625C25.6094 11.625 25.8125 11.5827 25.9648 11.498C26.1172 11.4134 26.242 11.2949 26.3394 11.1426C26.4113 11.0283 26.5277 10.7448 26.6885 10.292C26.7096 10.2285 26.7435 10.1354 26.79 10.0127L24.2319 3.25879H25.4634L26.8662 7.1626C27.0482 7.65771 27.2111 8.17822 27.355 8.72412C27.4862 8.19938 27.6427 7.68734 27.8247 7.18799L29.2656 3.25879H30.4082L27.8438 10.1143C27.5687 10.8548 27.355 11.3647 27.2026 11.644C26.9995 12.0207 26.7668 12.2957 26.5044 12.4692C26.242 12.647 25.9289 12.7358 25.5649 12.7358C25.3449 12.7358 25.0994 12.6893 24.8286 12.5962ZM31.3667 10V3.25879H32.395V4.28076C32.6574 3.80257 32.8986 3.4873 33.1187 3.33496C33.3429 3.18262 33.5884 3.10645 33.855 3.10645C34.2401 3.10645 34.6315 3.22917 35.0293 3.47461L34.6357 4.53467C34.3564 4.36963 34.0771 4.28711 33.7979 4.28711C33.5482 4.28711 33.3239 4.36328 33.125 4.51562C32.9261 4.66374 32.7843 4.87109 32.6997 5.1377C32.5728 5.54395 32.5093 5.98828 32.5093 6.4707V10H31.3667ZM35.7148 2.0083V0.694336H36.8574V2.0083H35.7148ZM35.7148 10V3.25879H36.8574V10H35.7148ZM38.3936 10.5586L39.5044 10.7236C39.5509 11.0664 39.68 11.3161 39.8916 11.4727C40.1751 11.6842 40.5623 11.79 41.0532 11.79C41.5822 11.79 41.9906 11.6842 42.2783 11.4727C42.5661 11.2611 42.7607 10.9648 42.8623 10.584C42.9215 10.3512 42.9491 9.86247 42.9448 9.11768C42.4455 9.70589 41.8234 10 41.0786 10C40.1519 10 39.4346 9.66569 38.9268 8.99707C38.4189 8.32845 38.165 7.52653 38.165 6.59131C38.165 5.94808 38.2814 5.35563 38.5142 4.81396C38.7469 4.26807 39.0833 3.84701 39.5234 3.55078C39.9678 3.25456 40.4883 3.10645 41.085 3.10645C41.8805 3.10645 42.5365 3.42806 43.0527 4.07129V3.25879H44.1064V9.08594C44.1064 10.1354 43.9985 10.8781 43.7827 11.314C43.5711 11.7541 43.2326 12.1011 42.7671 12.355C42.3058 12.6089 41.7367 12.7358 41.0596 12.7358C40.2555 12.7358 39.606 12.5539 39.1108 12.1899C38.6157 11.8302 38.3766 11.2865 38.3936 10.5586ZM39.3394 6.50879C39.3394 7.39323 39.515 8.03857 39.8662 8.44482C40.2174 8.85107 40.6576 9.0542 41.1865 9.0542C41.7113 9.0542 42.1514 8.85319 42.5068 8.45117C42.8623 8.04492 43.04 7.41016 43.04 6.54688C43.04 5.72168 42.856 5.09961 42.4878 4.68066C42.1239 4.26172 41.6838 4.05225 41.1675 4.05225C40.6597 4.05225 40.228 4.2596 39.8726 4.67432C39.5171 5.0848 39.3394 5.69629 39.3394 6.50879ZM45.8394 10V0.694336H46.9819V4.0332C47.5151 3.41536 48.188 3.10645 49.0005 3.10645C49.4998 3.10645 49.9336 3.20589 50.3018 3.40479C50.6699 3.59945 50.9323 3.87028 51.0889 4.21729C51.2497 4.56429 51.3301 5.06787 51.3301 5.72803V10H50.1875V5.72803C50.1875 5.15674 50.0627 4.74202 49.813 4.48389C49.5675 4.22152 49.2184 4.09033 48.7656 4.09033C48.4271 4.09033 48.1076 4.1792 47.8071 4.35693C47.5109 4.53044 47.2993 4.76742 47.1724 5.06787C47.0454 5.36833 46.9819 5.78304 46.9819 6.31201V10H45.8394ZM55.5703 8.97803L55.7354 9.9873C55.4137 10.055 55.126 10.0889 54.8721 10.0889C54.4574 10.0889 54.1357 10.0233 53.9072 9.89209C53.6787 9.7609 53.5179 9.58952 53.4248 9.37793C53.3317 9.16211 53.2852 8.71143 53.2852 8.02588V4.14746H52.4473V3.25879H53.2852V1.58936L54.4214 0.903809V3.25879H55.5703V4.14746H54.4214V8.08936C54.4214 8.4152 54.4404 8.62467 54.4785 8.71777C54.5208 8.81087 54.5864 8.88493 54.6753 8.93994C54.7684 8.99495 54.8996 9.02246 55.0688 9.02246C55.1958 9.02246 55.363 9.00765 55.5703 8.97803ZM64.2666 0.535645C65.0706 0.535645 65.8556 0.743001 66.6216 1.15771C67.3875 1.5682 67.9842 2.15853 68.4116 2.92871C68.839 3.69466 69.0527 4.49447 69.0527 5.32812C69.0527 6.15332 68.8411 6.94678 68.418 7.7085C67.999 8.47021 67.4087 9.06266 66.647 9.48584C65.8895 9.90479 65.096 10.1143 64.2666 10.1143C63.4372 10.1143 62.6416 9.90479 61.8799 9.48584C61.1224 9.06266 60.5321 8.47021 60.1089 7.7085C59.6857 6.94678 59.4741 6.15332 59.4741 5.32812C59.4741 4.49447 59.6878 3.69466 60.1152 2.92871C60.5469 2.15853 61.1457 1.5682 61.9116 1.15771C62.6776 0.743001 63.4626 0.535645 64.2666 0.535645ZM64.2666 1.3291C63.5938 1.3291 62.9378 1.5026 62.2988 1.84961C61.6641 2.19238 61.1668 2.68538 60.8071 3.32861C60.4474 3.96761 60.2676 4.63411 60.2676 5.32812C60.2676 6.0179 60.4432 6.68018 60.7944 7.31494C61.1499 7.94548 61.645 8.43848 62.2798 8.79395C62.9146 9.14518 63.5768 9.3208 64.2666 9.3208C64.9564 9.3208 65.6187 9.14518 66.2534 8.79395C66.8882 8.43848 67.3812 7.94548 67.7324 7.31494C68.0837 6.68018 68.2593 6.0179 68.2593 5.32812C68.2593 4.63411 68.0794 3.96761 67.7197 3.32861C67.3643 2.68538 66.867 2.19238 66.228 1.84961C65.589 1.5026 64.9352 1.3291 64.2666 1.3291ZM65.8027 6.10254L66.5835 6.33105C66.4565 6.86003 66.1857 7.2832 65.771 7.60059C65.3605 7.91374 64.8612 8.07031 64.2729 8.07031C63.5282 8.07031 62.923 7.8291 62.4575 7.34668C61.992 6.86426 61.7593 6.19564 61.7593 5.34082C61.7593 4.78223 61.8651 4.29769 62.0767 3.88721C62.2882 3.47249 62.5887 3.16146 62.978 2.9541C63.3716 2.74251 63.8201 2.63672 64.3237 2.63672C64.8866 2.63672 65.3542 2.77214 65.7266 3.04297C66.099 3.30957 66.3529 3.6735 66.4883 4.13477L65.7329 4.31885C65.606 4.0057 65.4176 3.7666 65.168 3.60156C64.9225 3.43229 64.6326 3.34766 64.2983 3.34766C63.8117 3.34766 63.4097 3.52116 63.0923 3.86816C62.7791 4.21517 62.6226 4.7124 62.6226 5.35986C62.6226 6.00732 62.7707 6.49821 63.0669 6.83252C63.3674 7.1626 63.7546 7.32764 64.2285 7.32764C64.6094 7.32764 64.9437 7.21761 65.2314 6.99756C65.5192 6.77751 65.7096 6.47917 65.8027 6.10254ZM79.2026 8.90186V10H73.0518C73.0433 9.72493 73.0877 9.46045 73.1851 9.20654C73.3416 8.7876 73.5913 8.375 73.9341 7.96875C74.2811 7.5625 74.7804 7.09277 75.4321 6.55957C76.4435 5.73014 77.127 5.07422 77.4824 4.5918C77.8379 4.10514 78.0156 3.646 78.0156 3.21436C78.0156 2.76156 77.8527 2.3807 77.5269 2.07178C77.2052 1.75863 76.7842 1.60205 76.2637 1.60205C75.7135 1.60205 75.2734 1.76709 74.9434 2.09717C74.6133 2.42725 74.4461 2.88428 74.4419 3.46826L73.2676 3.34766C73.348 2.47168 73.6506 1.80518 74.1753 1.34814C74.7 0.886882 75.4046 0.65625 76.2891 0.65625C77.182 0.65625 77.8887 0.903809 78.4092 1.39893C78.9297 1.89404 79.1899 2.50765 79.1899 3.23975C79.1899 3.61214 79.1138 3.97819 78.9614 4.33789C78.8091 4.69759 78.5552 5.07633 78.1997 5.47412C77.8485 5.87191 77.2624 6.41781 76.4414 7.11182C75.7559 7.68734 75.3158 8.07878 75.1211 8.28613C74.9264 8.48926 74.7656 8.6945 74.6387 8.90186H79.2026ZM80.4341 5.41064C80.4341 4.31038 80.5462 3.42594 80.7705 2.75732C80.999 2.08447 81.3354 1.56608 81.7798 1.20215C82.2284 0.838216 82.7912 0.65625 83.4683 0.65625C83.9676 0.65625 84.4056 0.757812 84.7822 0.960938C85.1589 1.15983 85.4699 1.44971 85.7153 1.83057C85.9608 2.20719 86.1533 2.66846 86.293 3.21436C86.4326 3.75602 86.5024 4.48812 86.5024 5.41064C86.5024 6.50244 86.3903 7.38477 86.166 8.05762C85.9417 8.72624 85.6053 9.24463 85.1567 9.61279C84.7124 9.97673 84.1496 10.1587 83.4683 10.1587C82.5711 10.1587 81.8665 9.83708 81.3545 9.19385C80.7409 8.41943 80.4341 7.15837 80.4341 5.41064ZM81.6084 5.41064C81.6084 6.93831 81.7861 7.95605 82.1416 8.46387C82.5013 8.96745 82.9435 9.21924 83.4683 9.21924C83.993 9.21924 84.4331 8.96533 84.7886 8.45752C85.1483 7.94971 85.3281 6.93408 85.3281 5.41064C85.3281 3.87874 85.1483 2.861 84.7886 2.35742C84.4331 1.85384 83.9888 1.60205 83.4556 1.60205C82.9308 1.60205 82.5119 1.82422 82.1987 2.26855C81.8052 2.83561 81.6084 3.88298 81.6084 5.41064ZM93.6753 8.90186V10H87.5244C87.516 9.72493 87.5604 9.46045 87.6577 9.20654C87.8143 8.7876 88.064 8.375 88.4067 7.96875C88.7537 7.5625 89.2531 7.09277 89.9048 6.55957C90.9162 5.73014 91.5996 5.07422 91.9551 4.5918C92.3105 4.10514 92.4883 3.646 92.4883 3.21436C92.4883 2.76156 92.3254 2.3807 91.9995 2.07178C91.6779 1.75863 91.2568 1.60205 90.7363 1.60205C90.1862 1.60205 89.7461 1.76709 89.416 2.09717C89.0859 2.42725 88.9188 2.88428 88.9146 3.46826L87.7402 3.34766C87.8206 2.47168 88.1232 1.80518 88.6479 1.34814C89.1727 0.886882 89.8773 0.65625 90.7617 0.65625C91.6546 0.65625 92.3613 0.903809 92.8818 1.39893C93.4023 1.89404 93.6626 2.50765 93.6626 3.23975C93.6626 3.61214 93.5864 3.97819 93.4341 4.33789C93.2817 4.69759 93.0278 5.07633 92.6724 5.47412C92.3211 5.87191 91.735 6.41781 90.9141 7.11182C90.2285 7.68734 89.7884 8.07878 89.5938 8.28613C89.3991 8.48926 89.2383 8.6945 89.1113 8.90186H93.6753ZM99.2104 10H98.0679V2.71924C97.7928 2.98161 97.431 3.24398 96.9824 3.50635C96.5381 3.76872 96.1382 3.96549 95.7827 4.09668V2.99219C96.4217 2.69173 96.9803 2.3278 97.4585 1.90039C97.9367 1.47298 98.2752 1.05827 98.4741 0.65625H99.2104V10ZM106.212 10V0.694336H107.475L112.363 8.00049V0.694336H113.543V10H112.28L107.393 2.6875V10H106.212ZM115.048 6.62939C115.048 5.38102 115.395 4.45638 116.089 3.85547C116.669 3.35612 117.375 3.10645 118.209 3.10645C119.136 3.10645 119.893 3.41113 120.481 4.02051C121.07 4.62565 121.364 5.46354 121.364 6.53418C121.364 7.40169 121.233 8.08512 120.97 8.58447C120.712 9.07959 120.333 9.46468 119.834 9.73975C119.339 10.0148 118.797 10.1523 118.209 10.1523C117.265 10.1523 116.501 9.84977 115.917 9.24463C115.338 8.63949 115.048 7.76774 115.048 6.62939ZM116.222 6.62939C116.222 7.49268 116.41 8.14014 116.787 8.57178C117.164 8.99919 117.638 9.21289 118.209 9.21289C118.776 9.21289 119.248 8.99707 119.625 8.56543C120.001 8.13379 120.189 7.47575 120.189 6.59131C120.189 5.75765 119.999 5.12712 119.618 4.69971C119.242 4.26807 118.772 4.05225 118.209 4.05225C117.638 4.05225 117.164 4.26595 116.787 4.69336C116.41 5.12077 116.222 5.76611 116.222 6.62939ZM122.697 10V3.25879H123.725V4.28076C123.987 3.80257 124.229 3.4873 124.449 3.33496C124.673 3.18262 124.918 3.10645 125.185 3.10645C125.57 3.10645 125.962 3.22917 126.359 3.47461L125.966 4.53467C125.687 4.36963 125.407 4.28711 125.128 4.28711C124.878 4.28711 124.654 4.36328 124.455 4.51562C124.256 4.66374 124.114 4.87109 124.03 5.1377C123.903 5.54395 123.839 5.98828 123.839 6.4707V10H122.697ZM130.752 10V0.694336H131.983V8.90186H136.566V10H130.752ZM142.292 9.16846C141.869 9.52816 141.46 9.78206 141.067 9.93018C140.678 10.0783 140.259 10.1523 139.81 10.1523C139.069 10.1523 138.5 9.97249 138.103 9.61279C137.705 9.24886 137.506 8.78548 137.506 8.22266C137.506 7.89258 137.58 7.59212 137.728 7.32129C137.88 7.04622 138.077 6.82617 138.318 6.66113C138.564 6.49609 138.839 6.37126 139.144 6.28662C139.368 6.22738 139.706 6.17025 140.159 6.11523C141.082 6.00521 141.761 5.87402 142.197 5.72168C142.201 5.5651 142.203 5.46566 142.203 5.42334C142.203 4.95785 142.095 4.62988 141.879 4.43945C141.587 4.18132 141.154 4.05225 140.578 4.05225C140.041 4.05225 139.643 4.14746 139.385 4.33789C139.131 4.52409 138.943 4.85628 138.82 5.33447L137.703 5.18213C137.804 4.70394 137.971 4.31885 138.204 4.02686C138.437 3.73063 138.773 3.50423 139.213 3.34766C139.653 3.18685 140.163 3.10645 140.743 3.10645C141.319 3.10645 141.786 3.17415 142.146 3.30957C142.506 3.44499 142.77 3.61637 142.939 3.82373C143.109 4.02686 143.227 4.28499 143.295 4.59814C143.333 4.79281 143.352 5.14404 143.352 5.65186V7.17529C143.352 8.23747 143.375 8.91032 143.422 9.19385C143.473 9.47314 143.57 9.74186 143.714 10H142.521C142.402 9.76302 142.326 9.48584 142.292 9.16846ZM142.197 6.6167C141.782 6.78597 141.16 6.92985 140.331 7.04834C139.861 7.11605 139.529 7.19222 139.334 7.27686C139.139 7.36149 138.989 7.48633 138.883 7.65137C138.778 7.81217 138.725 7.99202 138.725 8.19092C138.725 8.49561 138.839 8.74951 139.067 8.95264C139.3 9.15576 139.639 9.25732 140.083 9.25732C140.523 9.25732 140.915 9.16211 141.257 8.97168C141.6 8.77702 141.852 8.51253 142.013 8.17822C142.135 7.92008 142.197 7.53923 142.197 7.03564V6.6167ZM146.183 10H145.123V0.694336H146.266V4.01416C146.748 3.40902 147.364 3.10645 148.113 3.10645C148.528 3.10645 148.919 3.19108 149.287 3.36035C149.66 3.52539 149.964 3.76025 150.201 4.06494C150.442 4.3654 150.631 4.72933 150.766 5.15674C150.902 5.58415 150.969 6.04118 150.969 6.52783C150.969 7.68311 150.684 8.57601 150.112 9.20654C149.541 9.83708 148.855 10.1523 148.056 10.1523C147.26 10.1523 146.636 9.82015 146.183 9.15576V10ZM146.17 6.57861C146.17 7.38688 146.28 7.97087 146.5 8.33057C146.86 8.91878 147.347 9.21289 147.96 9.21289C148.46 9.21289 148.891 8.99707 149.255 8.56543C149.619 8.12956 149.801 7.4821 149.801 6.62305C149.801 5.74284 149.626 5.09326 149.274 4.67432C148.927 4.25537 148.506 4.0459 148.011 4.0459C147.512 4.0459 147.08 4.26383 146.716 4.69971C146.352 5.13135 146.17 5.75765 146.17 6.57861ZM151.909 7.98779L153.039 7.81006C153.102 8.26286 153.278 8.60986 153.565 8.85107C153.857 9.09229 154.264 9.21289 154.784 9.21289C155.309 9.21289 155.698 9.1071 155.952 8.89551C156.206 8.67969 156.333 8.4279 156.333 8.14014C156.333 7.882 156.221 7.67887 155.997 7.53076C155.84 7.4292 155.451 7.30013 154.829 7.14355C153.991 6.93197 153.409 6.75 153.083 6.59766C152.761 6.44108 152.516 6.22738 152.347 5.95654C152.182 5.68148 152.099 5.37891 152.099 5.04883C152.099 4.74837 152.167 4.47119 152.302 4.21729C152.442 3.95915 152.63 3.74544 152.867 3.57617C153.045 3.44499 153.286 3.33496 153.591 3.24609C153.9 3.15299 154.23 3.10645 154.581 3.10645C155.11 3.10645 155.573 3.18262 155.971 3.33496C156.373 3.4873 156.669 3.69466 156.86 3.95703C157.05 4.21517 157.181 4.56217 157.253 4.99805L156.136 5.15039C156.085 4.80339 155.937 4.53255 155.692 4.33789C155.451 4.14323 155.108 4.0459 154.664 4.0459C154.139 4.0459 153.764 4.13265 153.54 4.30615C153.316 4.47965 153.204 4.68278 153.204 4.91553C153.204 5.06364 153.25 5.19694 153.343 5.31543C153.436 5.43815 153.582 5.53971 153.781 5.62012C153.896 5.66243 154.232 5.75977 154.791 5.91211C155.599 6.12793 156.162 6.30566 156.479 6.44531C156.801 6.58073 157.052 6.77962 157.234 7.04199C157.416 7.30436 157.507 7.63021 157.507 8.01953C157.507 8.40039 157.395 8.76009 157.171 9.09863C156.951 9.43294 156.631 9.6932 156.212 9.87939C155.793 10.0614 155.319 10.1523 154.791 10.1523C153.915 10.1523 153.246 9.97038 152.785 9.60645C152.328 9.24251 152.036 8.70296 151.909 7.98779ZM159.164 10V8.69873H160.465V10C160.465 10.4782 160.381 10.8633 160.211 11.1553C160.042 11.4515 159.773 11.68 159.405 11.8408L159.088 11.3521C159.329 11.2463 159.507 11.0897 159.621 10.8823C159.735 10.6792 159.799 10.3851 159.812 10H159.164ZM166.458 10V0.694336H167.689V10H166.458ZM169.72 10V3.25879H170.749V4.21729C171.244 3.47673 171.959 3.10645 172.894 3.10645C173.3 3.10645 173.673 3.1805 174.011 3.32861C174.354 3.47249 174.61 3.66292 174.779 3.8999C174.949 4.13688 175.067 4.41829 175.135 4.74414C175.177 4.95573 175.198 5.32601 175.198 5.85498V10H174.056V5.89941C174.056 5.43392 174.011 5.08691 173.922 4.8584C173.833 4.62565 173.675 4.44157 173.446 4.30615C173.222 4.1665 172.958 4.09668 172.653 4.09668C172.166 4.09668 171.745 4.25114 171.39 4.56006C171.038 4.86898 170.863 5.45508 170.863 6.31836V10H169.72ZM181.355 7.53076L182.479 7.67676C182.356 8.45117 182.041 9.05843 181.533 9.49854C181.03 9.93441 180.41 10.1523 179.673 10.1523C178.751 10.1523 178.008 9.85189 177.445 9.25098C176.887 8.64583 176.607 7.78044 176.607 6.65479C176.607 5.92692 176.728 5.29004 176.969 4.74414C177.21 4.19824 177.576 3.78988 178.067 3.51904C178.562 3.24398 179.1 3.10645 179.68 3.10645C180.412 3.10645 181.011 3.29264 181.476 3.66504C181.942 4.0332 182.24 4.55794 182.371 5.23926L181.26 5.41064C181.154 4.95785 180.966 4.61719 180.695 4.38867C180.429 4.16016 180.105 4.0459 179.724 4.0459C179.149 4.0459 178.681 4.25326 178.321 4.66797C177.962 5.07845 177.782 5.73014 177.782 6.62305C177.782 7.52865 177.955 8.18669 178.302 8.59717C178.649 9.00765 179.102 9.21289 179.661 9.21289C180.109 9.21289 180.484 9.07536 180.784 8.80029C181.085 8.52523 181.275 8.10205 181.355 7.53076ZM183.78 10V8.69873H185.082V10H183.78ZM189.093 10L192.667 0.694336H193.994L197.802 10H196.399L195.314 7.18164H191.423L190.401 10H189.093ZM191.778 6.17871H194.933L193.962 3.60156C193.666 2.81868 193.446 2.17546 193.302 1.67188C193.183 2.26855 193.016 2.861 192.8 3.44922L191.778 6.17871ZM198.615 10V0.694336H199.757V10H198.615ZM201.509 10V0.694336H202.652V10H201.509ZM208.035 10V3.25879H209.063V4.28076C209.325 3.80257 209.567 3.4873 209.787 3.33496C210.011 3.18262 210.256 3.10645 210.523 3.10645C210.908 3.10645 211.299 3.22917 211.697 3.47461L211.304 4.53467C211.024 4.36963 210.745 4.28711 210.466 4.28711C210.216 4.28711 209.992 4.36328 209.793 4.51562C209.594 4.66374 209.452 4.87109 209.368 5.1377C209.241 5.54395 209.177 5.98828 209.177 6.4707V10H208.035ZM212.383 2.0083V0.694336H213.525V2.0083H212.383ZM212.383 10V3.25879H213.525V10H212.383ZM215.062 10.5586L216.172 10.7236C216.219 11.0664 216.348 11.3161 216.56 11.4727C216.843 11.6842 217.23 11.79 217.721 11.79C218.25 11.79 218.659 11.6842 218.946 11.4727C219.234 11.2611 219.429 10.9648 219.53 10.584C219.59 10.3512 219.617 9.86247 219.613 9.11768C219.113 9.70589 218.491 10 217.747 10C216.82 10 216.103 9.66569 215.595 8.99707C215.087 8.32845 214.833 7.52653 214.833 6.59131C214.833 5.94808 214.949 5.35563 215.182 4.81396C215.415 4.26807 215.751 3.84701 216.191 3.55078C216.636 3.25456 217.156 3.10645 217.753 3.10645C218.549 3.10645 219.204 3.42806 219.721 4.07129V3.25879H220.774V9.08594C220.774 10.1354 220.667 10.8781 220.451 11.314C220.239 11.7541 219.901 12.1011 219.435 12.355C218.974 12.6089 218.405 12.7358 217.728 12.7358C216.924 12.7358 216.274 12.5539 215.779 12.1899C215.284 11.8302 215.045 11.2865 215.062 10.5586ZM216.007 6.50879C216.007 7.39323 216.183 8.03857 216.534 8.44482C216.885 8.85107 217.326 9.0542 217.854 9.0542C218.379 9.0542 218.819 8.85319 219.175 8.45117C219.53 8.04492 219.708 7.41016 219.708 6.54688C219.708 5.72168 219.524 5.09961 219.156 4.68066C218.792 4.26172 218.352 4.05225 217.835 4.05225C217.328 4.05225 216.896 4.2596 216.541 4.67432C216.185 5.0848 216.007 5.69629 216.007 6.50879ZM222.507 10V0.694336H223.65V4.0332C224.183 3.41536 224.856 3.10645 225.668 3.10645C226.168 3.10645 226.602 3.20589 226.97 3.40479C227.338 3.59945 227.6 3.87028 227.757 4.21729C227.918 4.56429 227.998 5.06787 227.998 5.72803V10H226.855V5.72803C226.855 5.15674 226.731 4.74202 226.481 4.48389C226.236 4.22152 225.886 4.09033 225.434 4.09033C225.095 4.09033 224.776 4.1792 224.475 4.35693C224.179 4.53044 223.967 4.76742 223.84 5.06787C223.713 5.36833 223.65 5.78304 223.65 6.31201V10H222.507ZM232.238 8.97803L232.403 9.9873C232.082 10.055 231.794 10.0889 231.54 10.0889C231.125 10.0889 230.804 10.0233 230.575 9.89209C230.347 9.7609 230.186 9.58952 230.093 9.37793C230 9.16211 229.953 8.71143 229.953 8.02588V4.14746H229.115V3.25879H229.953V1.58936L231.089 0.903809V3.25879H232.238V4.14746H231.089V8.08936C231.089 8.4152 231.108 8.62467 231.146 8.71777C231.189 8.81087 231.254 8.88493 231.343 8.93994C231.436 8.99495 231.568 9.02246 231.737 9.02246C231.864 9.02246 232.031 9.00765 232.238 8.97803ZM232.905 7.98779L234.035 7.81006C234.098 8.26286 234.274 8.60986 234.562 8.85107C234.854 9.09229 235.26 9.21289 235.78 9.21289C236.305 9.21289 236.694 9.1071 236.948 8.89551C237.202 8.67969 237.329 8.4279 237.329 8.14014C237.329 7.882 237.217 7.67887 236.993 7.53076C236.836 7.4292 236.447 7.30013 235.825 7.14355C234.987 6.93197 234.405 6.75 234.079 6.59766C233.757 6.44108 233.512 6.22738 233.343 5.95654C233.178 5.68148 233.095 5.37891 233.095 5.04883C233.095 4.74837 233.163 4.47119 233.298 4.21729C233.438 3.95915 233.626 3.74544 233.863 3.57617C234.041 3.44499 234.282 3.33496 234.587 3.24609C234.896 3.15299 235.226 3.10645 235.577 3.10645C236.106 3.10645 236.569 3.18262 236.967 3.33496C237.369 3.4873 237.666 3.69466 237.856 3.95703C238.046 4.21517 238.178 4.56217 238.25 4.99805L237.132 5.15039C237.082 4.80339 236.933 4.53255 236.688 4.33789C236.447 4.14323 236.104 4.0459 235.66 4.0459C235.135 4.0459 234.76 4.13265 234.536 4.30615C234.312 4.47965 234.2 4.68278 234.2 4.91553C234.2 5.06364 234.246 5.19694 234.339 5.31543C234.432 5.43815 234.578 5.53971 234.777 5.62012C234.892 5.66243 235.228 5.75977 235.787 5.91211C236.595 6.12793 237.158 6.30566 237.475 6.44531C237.797 6.58073 238.049 6.77962 238.23 7.04199C238.412 7.30436 238.503 7.63021 238.503 8.01953C238.503 8.40039 238.391 8.76009 238.167 9.09863C237.947 9.43294 237.627 9.6932 237.208 9.87939C236.79 10.0614 236.316 10.1523 235.787 10.1523C234.911 10.1523 234.242 9.97038 233.781 9.60645C233.324 9.24251 233.032 8.70296 232.905 7.98779ZM243.467 10V3.25879H244.496V4.28076C244.758 3.80257 244.999 3.4873 245.219 3.33496C245.444 3.18262 245.689 3.10645 245.956 3.10645C246.341 3.10645 246.732 3.22917 247.13 3.47461L246.736 4.53467C246.457 4.36963 246.178 4.28711 245.898 4.28711C245.649 4.28711 245.424 4.36328 245.226 4.51562C245.027 4.66374 244.885 4.87109 244.8 5.1377C244.673 5.54395 244.61 5.98828 244.61 6.4707V10H243.467ZM252.424 7.8291L253.604 7.9751C253.418 8.66488 253.073 9.2002 252.57 9.58105C252.066 9.96191 251.423 10.1523 250.64 10.1523C249.654 10.1523 248.871 9.84977 248.292 9.24463C247.716 8.63525 247.428 7.78255 247.428 6.68652C247.428 5.55241 247.72 4.6722 248.304 4.0459C248.888 3.4196 249.646 3.10645 250.577 3.10645C251.478 3.10645 252.214 3.41325 252.786 4.02686C253.357 4.64046 253.643 5.50374 253.643 6.6167C253.643 6.68441 253.64 6.78597 253.636 6.92139H248.609C248.651 7.66195 248.861 8.229 249.237 8.62256C249.614 9.01611 250.084 9.21289 250.646 9.21289C251.065 9.21289 251.423 9.10286 251.719 8.88281C252.015 8.66276 252.25 8.31152 252.424 7.8291ZM248.672 5.98193H252.437C252.386 5.41488 252.242 4.98958 252.005 4.70605C251.641 4.26595 251.169 4.0459 250.589 4.0459C250.065 4.0459 249.622 4.22152 249.263 4.57275C248.907 4.92399 248.71 5.39372 248.672 5.98193ZM254.588 7.98779L255.718 7.81006C255.782 8.26286 255.957 8.60986 256.245 8.85107C256.537 9.09229 256.943 9.21289 257.464 9.21289C257.989 9.21289 258.378 9.1071 258.632 8.89551C258.886 8.67969 259.013 8.4279 259.013 8.14014C259.013 7.882 258.901 7.67887 258.676 7.53076C258.52 7.4292 258.13 7.30013 257.508 7.14355C256.67 6.93197 256.089 6.75 255.763 6.59766C255.441 6.44108 255.196 6.22738 255.026 5.95654C254.861 5.68148 254.779 5.37891 254.779 5.04883C254.779 4.74837 254.847 4.47119 254.982 4.21729C255.122 3.95915 255.31 3.74544 255.547 3.57617C255.725 3.44499 255.966 3.33496 256.271 3.24609C256.579 3.15299 256.91 3.10645 257.261 3.10645C257.79 3.10645 258.253 3.18262 258.651 3.33496C259.053 3.4873 259.349 3.69466 259.54 3.95703C259.73 4.21517 259.861 4.56217 259.933 4.99805L258.816 5.15039C258.765 4.80339 258.617 4.53255 258.372 4.33789C258.13 4.14323 257.788 4.0459 257.343 4.0459C256.819 4.0459 256.444 4.13265 256.22 4.30615C255.995 4.47965 255.883 4.68278 255.883 4.91553C255.883 5.06364 255.93 5.19694 256.023 5.31543C256.116 5.43815 256.262 5.53971 256.461 5.62012C256.575 5.66243 256.912 5.75977 257.47 5.91211C258.278 6.12793 258.841 6.30566 259.159 6.44531C259.48 6.58073 259.732 6.77962 259.914 7.04199C260.096 7.30436 260.187 7.63021 260.187 8.01953C260.187 8.40039 260.075 8.76009 259.851 9.09863C259.631 9.43294 259.311 9.6932 258.892 9.87939C258.473 10.0614 257.999 10.1523 257.47 10.1523C256.594 10.1523 255.926 9.97038 255.464 9.60645C255.007 9.24251 254.715 8.70296 254.588 7.98779ZM266.16 7.8291L267.341 7.9751C267.155 8.66488 266.81 9.2002 266.306 9.58105C265.803 9.96191 265.159 10.1523 264.376 10.1523C263.39 10.1523 262.608 9.84977 262.028 9.24463C261.452 8.63525 261.165 7.78255 261.165 6.68652C261.165 5.55241 261.457 4.6722 262.041 4.0459C262.625 3.4196 263.382 3.10645 264.313 3.10645C265.214 3.10645 265.951 3.41325 266.522 4.02686C267.093 4.64046 267.379 5.50374 267.379 6.6167C267.379 6.68441 267.377 6.78597 267.373 6.92139H262.345C262.388 7.66195 262.597 8.229 262.974 8.62256C263.35 9.01611 263.82 9.21289 264.383 9.21289C264.802 9.21289 265.159 9.10286 265.456 8.88281C265.752 8.66276 265.987 8.31152 266.16 7.8291ZM262.409 5.98193H266.173C266.122 5.41488 265.978 4.98958 265.741 4.70605C265.377 4.26595 264.905 4.0459 264.326 4.0459C263.801 4.0459 263.359 4.22152 262.999 4.57275C262.644 4.92399 262.447 5.39372 262.409 5.98193ZM268.769 10V3.25879H269.797V4.28076C270.06 3.80257 270.301 3.4873 270.521 3.33496C270.745 3.18262 270.991 3.10645 271.257 3.10645C271.642 3.10645 272.034 3.22917 272.432 3.47461L272.038 4.53467C271.759 4.36963 271.479 4.28711 271.2 4.28711C270.951 4.28711 270.726 4.36328 270.527 4.51562C270.328 4.66374 270.187 4.87109 270.102 5.1377C269.975 5.54395 269.912 5.98828 269.912 6.4707V10H268.769ZM274.983 10L272.419 3.25879H273.625L275.072 7.2959C275.229 7.73177 275.373 8.18457 275.504 8.6543C275.605 8.29883 275.747 7.87142 275.929 7.37207L277.427 3.25879H278.602L276.05 10H274.983ZM284.226 7.8291L285.406 7.9751C285.22 8.66488 284.875 9.2002 284.372 9.58105C283.868 9.96191 283.225 10.1523 282.442 10.1523C281.456 10.1523 280.673 9.84977 280.093 9.24463C279.518 8.63525 279.23 7.78255 279.23 6.68652C279.23 5.55241 279.522 4.6722 280.106 4.0459C280.69 3.4196 281.447 3.10645 282.378 3.10645C283.28 3.10645 284.016 3.41325 284.587 4.02686C285.159 4.64046 285.444 5.50374 285.444 6.6167C285.444 6.68441 285.442 6.78597 285.438 6.92139H280.411C280.453 7.66195 280.662 8.229 281.039 8.62256C281.416 9.01611 281.885 9.21289 282.448 9.21289C282.867 9.21289 283.225 9.10286 283.521 8.88281C283.817 8.66276 284.052 8.31152 284.226 7.8291ZM280.474 5.98193H284.238C284.188 5.41488 284.044 4.98958 283.807 4.70605C283.443 4.26595 282.971 4.0459 282.391 4.0459C281.866 4.0459 281.424 4.22152 281.064 4.57275C280.709 4.92399 280.512 5.39372 280.474 5.98193ZM291.221 10V9.14941C290.793 9.81803 290.165 10.1523 289.335 10.1523C288.798 10.1523 288.303 10.0042 287.85 9.70801C287.402 9.41178 287.052 8.99919 286.803 8.47021C286.557 7.93701 286.435 7.32552 286.435 6.63574C286.435 5.96289 286.547 5.35352 286.771 4.80762C286.995 4.25749 287.332 3.83643 287.78 3.54443C288.229 3.25244 288.73 3.10645 289.285 3.10645C289.691 3.10645 290.053 3.1932 290.37 3.3667C290.688 3.53597 290.946 3.75814 291.145 4.0332V0.694336H292.281V10H291.221ZM287.609 6.63574C287.609 7.49902 287.791 8.14437 288.155 8.57178C288.519 8.99919 288.948 9.21289 289.443 9.21289C289.943 9.21289 290.366 9.00977 290.713 8.60352C291.064 8.19303 291.24 7.56885 291.24 6.73096C291.24 5.80843 291.062 5.13135 290.707 4.69971C290.351 4.26807 289.913 4.05225 289.393 4.05225C288.885 4.05225 288.459 4.2596 288.117 4.67432C287.778 5.08903 287.609 5.74284 287.609 6.63574ZM294.407 10V8.69873H295.708V10H294.407Z" fill="#9FA4A6"/>
</svg>
